<svg xmlns:xlink="http://www.w3.org/1999/xlink" xmlns="http://www.w3.org/2000/svg" width="297.973" height="32.299" viewBox="0 0 297.973 32.299">
  <g id="Group_61" data-name="Group 61" transform="translate(-73.687 -443.929)">
    <path id="Path_23" data-name="Path 23" d="M82.025,480.037a14.219,14.219,0,0,1-7.108-1.686,21.041,21.041,0,0,1-1.23-6.379c.228-.319.911-.41,1.093-.137.683,2.323,2.552,6.789,7.837,6.789,3.827,0,5.7-2.506,5.7-5.24,0-2-.41-4.237-3.736-6.379l-4.328-2.825c-2.278-1.5-4.921-4.1-4.921-7.837,0-4.328,3.372-7.837,9.295-7.837a17.606,17.606,0,0,1,4.237.592,6.114,6.114,0,0,0,1.595.273,19.932,19.932,0,0,1,.82,5.559c-.182.273-.911.41-1.139.137-.592-2.187-1.823-5.149-6.2-5.149-4.465,0-5.422,2.962-5.422,5.057,0,2.643,2.187,4.556,3.873,5.6l3.645,2.278c2.87,1.777,5.7,4.419,5.7,8.748C91.73,476.62,87.948,480.037,82.025,480.037Z" transform="translate(0 -3.809)"/>
    <path id="Path_24" data-name="Path 24" d="M240.563,468.664c0,4.784.091,5.467,2.734,5.695l1.458.137c.273.182.182,1-.091,1.139-2.6-.091-4.146-.136-5.969-.136s-3.417.046-6.333.136a.8.8,0,0,1,0-1.139l1.64-.137c2.6-.228,2.825-.911,2.825-5.695V448.3c0-1.412,0-1.458-1.367-1.458h-2.506c-1.959,0-4.465.091-5.6,1.139a8.318,8.318,0,0,0-2.05,3.144.881.881,0,0,1-1.185-.319,47.961,47.961,0,0,0,1.731-6.789,1.137,1.137,0,0,1,.866,0c.273,1.458,1.777,1.412,3.873,1.412h18.453c2.46,0,2.87-.091,3.554-1.276.228-.091.729-.046.82.137a27.577,27.577,0,0,0-.683,6.925.856.856,0,0,1-1.185.091c-.137-1.139-.456-2.825-1.139-3.326-1.048-.775-2.779-1.139-5.285-1.139h-3.235c-1.367,0-1.321.046-1.321,1.549Z" transform="translate(-125.142)"/>
    <path id="Path_25" data-name="Path 25" d="M683.387,474.494c0,1.367,0,6.789.137,7.974a.822.822,0,0,1-.866.5c-.547-.775-1.868-2.369-5.832-6.88l-10.57-12.028c-1.23-1.413-4.329-5.149-5.285-6.151h-.091a11.578,11.578,0,0,0-.228,2.961V470.8c0,2.141.046,8.064.82,9.431.273.5,1.185.774,2.324.865l1.412.137a.834.834,0,0,1-.091,1.139c-2.05-.091-3.645-.137-5.331-.137-1.914,0-3.144.046-4.738.137a.844.844,0,0,1-.091-1.139l1.23-.137c1.048-.136,1.777-.41,2-.911.638-1.64.592-7.2.592-9.385V457.636a4.179,4.179,0,0,0-1-3.281,4.942,4.942,0,0,0-2.825-1.093l-.775-.091a.8.8,0,0,1,.091-1.139c1.913.136,4.328.136,5.148.136a14.739,14.739,0,0,0,2.1-.136c.911,2.323,6.288,8.338,7.791,10.024l4.419,4.966c3.144,3.508,5.376,6.06,7.518,8.247h.091a4.6,4.6,0,0,0,.182-1.913V463.6c0-2.141-.046-8.064-.911-9.431-.273-.41-1-.683-2.825-.911l-.774-.091c-.319-.273-.273-1,.091-1.139,2.1.091,3.645.136,5.376.136,1.959,0,3.144-.045,4.693-.136a.8.8,0,0,1,.091,1.139l-.638.091c-1.458.228-2.369.592-2.552.957-.774,1.64-.683,7.29-.683,9.385Z" transform="translate(-482.753 -6.741)"/>
    <path id="Path_26" data-name="Path 26" d="M900.155,459c0-4.738-.091-5.422-2.779-5.741l-.729-.091c-.273-.182-.182-1,.091-1.139,1.959.091,3.508.136,5.376.136h8.566a61.278,61.278,0,0,0,6.151-.136,51.186,51.186,0,0,1,.729,6.06.9.9,0,0,1-1.139.091c-.683-2.141-1.094-3.736-3.463-4.328a21.74,21.74,0,0,0-4.419-.274h-3.281c-1.367,0-1.367.091-1.367,1.822v9.112c0,1.276.137,1.276,1.5,1.276h2.643a16.908,16.908,0,0,0,3.873-.273c.547-.182.866-.456,1.094-1.595l.364-1.868a.9.9,0,0,1,1.185.045c0,1.093-.182,2.871-.182,4.6,0,1.64.182,3.372.182,4.374a.9.9,0,0,1-1.185.046l-.41-1.777a1.948,1.948,0,0,0-1.412-1.732,15.244,15.244,0,0,0-3.508-.228h-2.643c-1.367,0-1.5.045-1.5,1.23v6.424c0,2.415.137,3.964.866,4.738.547.547,1.5,1.048,5.513,1.048,3.508,0,4.83-.182,5.832-.684.82-.456,2.05-2.05,3.235-4.419a.838.838,0,0,1,1.139.319,39.73,39.73,0,0,1-2.05,6.333c-4.1-.091-8.156-.137-12.211-.137h-4.1c-1.959,0-3.508.046-6.2.137a.885.885,0,0,1-.091-1.139l1.5-.137c2.6-.228,2.825-.911,2.825-5.695Z" transform="translate(-683.803 -6.741)"/>
    <path id="Path_27" data-name="Path 27" d="M1092.541,480.037a14.219,14.219,0,0,1-7.108-1.686,21.04,21.04,0,0,1-1.23-6.379c.228-.319.911-.41,1.094-.137.683,2.323,2.551,6.789,7.836,6.789,3.827,0,5.7-2.506,5.7-5.24,0-2-.41-4.237-3.736-6.379l-4.328-2.825c-2.278-1.5-4.921-4.1-4.921-7.837,0-4.328,3.371-7.837,9.295-7.837a17.605,17.605,0,0,1,4.237.592,6.113,6.113,0,0,0,1.595.273,19.931,19.931,0,0,1,.82,5.559c-.182.273-.911.41-1.139.137-.593-2.187-1.823-5.149-6.2-5.149-4.465,0-5.422,2.962-5.422,5.057,0,2.643,2.187,4.556,3.873,5.6l3.645,2.278c2.87,1.777,5.7,4.419,5.7,8.748C1102.246,476.62,1098.464,480.037,1092.541,480.037Z" transform="translate(-840.651 -3.809)"/>
    <path id="Path_28" data-name="Path 28" d="M1251.08,468.664c0,4.784.091,5.467,2.734,5.695l1.458.137c.274.182.182,1-.091,1.139-2.6-.091-4.146-.136-5.969-.136s-3.417.046-6.333.136a.8.8,0,0,1,0-1.139l1.64-.137c2.6-.228,2.825-.911,2.825-5.695V448.3c0-1.412,0-1.458-1.367-1.458h-2.506c-1.959,0-4.465.091-5.6,1.139a8.322,8.322,0,0,0-2.05,3.144.881.881,0,0,1-1.185-.319,47.96,47.96,0,0,0,1.731-6.789,1.137,1.137,0,0,1,.866,0c.274,1.458,1.777,1.412,3.873,1.412h18.453c2.46,0,2.87-.091,3.554-1.276.228-.091.729-.046.82.137a27.6,27.6,0,0,0-.684,6.925.856.856,0,0,1-1.184.091c-.137-1.139-.456-2.825-1.139-3.326-1.048-.775-2.779-1.139-5.285-1.139H1252.4c-1.367,0-1.321.046-1.321,1.549Z" transform="translate(-965.793)"/>
    <path id="Path_29" data-name="Path 29" d="M1442.519,464.591a15.749,15.749,0,0,1,16.22-16.083c10.525,0,15.81,7.609,15.81,15.628a15.556,15.556,0,0,1-15.81,15.9C1448.624,480.037,1442.519,472.793,1442.519,464.591Zm27.474.957c0-7.518-3.326-15.628-12.028-15.628-4.739,0-10.89,3.235-10.89,13.213,0,6.743,3.28,15.491,12.256,15.491C1464.8,478.625,1469.993,474.524,1469.993,465.548Z" transform="translate(-1138.735 -3.809)"/>
    <path id="Path_30" data-name="Path 30" d="M1692.232,481.237a.8.8,0,0,1-.045,1.139c-2.1-.091-3.873-.137-5.741-.137-2.05,0-4.237.046-5.877.137a.964.964,0,0,1-.091-1.139l1.322-.137c1.048-.091,1.549-.273,1.549-.592,0-.273-.091-.729-1-2-1.959-2.779-4.511-6.561-6.515-9.158a108.465,108.465,0,0,0-6.424,9.7,3.678,3.678,0,0,0-.592,1.458c0,.273.41.5,1.321.592l1.23.137a.84.84,0,0,1-.045,1.139c-1.64-.091-3.372-.137-4.921-.137s-3.235.046-4.693.137a.735.735,0,0,1-.137-1.139l1.139-.137c2.46-.273,4.055-2.232,5.422-4.055.547-.729,3.691-4.738,6.2-8.383a1.909,1.909,0,0,0,.41-.911,2.753,2.753,0,0,0-.547-1.048l-6.834-9.8c-1.5-2.141-2.369-3.053-3.964-3.417l-1.458-.319c-.228-.273-.182-1,.091-1.139,2.141.091,3.645.136,5.285.136,1.777,0,3.827-.045,5.148-.136.319.136.365.82.091,1.139l-1.276.091c-.82.046-1.367.319-1.367.592a6.767,6.767,0,0,0,1.367,2.506c1.5,2.187,4.192,6.288,5.832,8.338,1.185-1.458,5.285-7.927,6.105-9.295a3.8,3.8,0,0,0,.638-1.5c0-.228-.683-.5-1.5-.592l-1.185-.137c-.273-.319-.273-.957.091-1.139,1.595.091,3.053.136,4.83.136,1.686,0,2.962-.045,4.374-.136a.844.844,0,0,1,.091,1.139l-1.093.091c-1.367.137-3.007,1.5-4.875,3.873-1.777,2.278-3.736,5.011-5.923,8.064a2.582,2.582,0,0,0-.456.866c0,.137.046.455.592,1.184l7.7,10.844c1.549,2.141,2.734,2.87,4.146,3.007Z" transform="translate(-1320.789 -6.741)"/>
    <path id="Path_31" data-name="Path 31" d="M464.137,462.423a16.14,16.14,0,0,1-15.955,13.765,15.591,15.591,0,0,1-2.663-.224c1.344-.66,3.081-.822,4.313-2.266s2.121-3.621,4.4-5.811c1.543-1.469,3.6-2.153,5.613-3.46A12.989,12.989,0,0,1,464.137,462.423ZM450.372,468.6a6.517,6.517,0,0,0-2.377,1.991c-1.481,1.842-2.6,2.949-6.758,4.032a15.918,15.918,0,0,0,2.6.971,20.077,20.077,0,0,0,9.2-7.9C453.376,467.171,451.268,468.16,450.372,468.6Zm13.877-9.844c-2.626,1.892-7.542,2.078-10.155,1.979-1.655-.062-3.721-.323-5.887-.323-3.323,0-3.958,2.551-7.928,3.684a18.106,18.106,0,0,0-6.459,3.323,16.162,16.162,0,0,0,5.9,6.372c2.614-.772,5.252-1.867,6.832-3.386,2.141-2.066,2.95-2.315,5.949-3.248a31.852,31.852,0,0,0,5.837-3.111c1.991-1.518,3.8-2.439,5.887-2.4a13.279,13.279,0,0,0,.087-1.581A11.477,11.477,0,0,0,464.249,458.752Zm-3.3-8.525c-.7.174-1.356.324-1.867.448-8.052,1.966-5.451,4.318-12.844,6.223-4.02,1.033-8.525,4.48-11.6,8.326-.149.174-.5.635,0,.473,3.945-1.319,5.078-3.41,9.5-5.053,1.854-.7,2.987-1.133,8.662-1.145,6.036-.025,9.085-.685,11.076-1.867a2.323,2.323,0,0,0,.224-.149A15.656,15.656,0,0,0,460.951,450.226Zm-3.4-3.285c-3.149,1.382-6.31,3.535-9.633,4.294-5.476,1.245-8.811,1.444-11.487,2.838a14.807,14.807,0,0,0-3.646,2.974l-.56.56v.012a15.724,15.724,0,0,0-.187,2.44,15.976,15.976,0,0,0,.971,5.526,16.687,16.687,0,0,0,1.73-1.929c2.066-2.763,3.671-4.9,7.355-6.185a57.383,57.383,0,0,0,11.761-5.364c2.2-1.232,4.294-2.028,6.21-2.937A15.26,15.26,0,0,0,457.553,446.941Zm-9.371-3.012a16.158,16.158,0,0,0-15.42,11.338,32.533,32.533,0,0,1,3.323-1.742,36.692,36.692,0,0,1,6.36-2.016c2.3-.56,5.3-1.046,7.33-2.589a20.151,20.151,0,0,0,4.182-3.908A15.672,15.672,0,0,0,448.182,443.929Zm6.733,1.481a22.156,22.156,0,0,1-3.236,2.725c-1.269,1.12-.236.622.585.311,1.369-.535,2.725-1.1,3.622-1.456.386-.162.734-.311,1.07-.461A15.431,15.431,0,0,0,454.915,445.41Z" transform="translate(-298.115 0)"/>
  </g>
</svg>