<svg xmlns:xlink="http://www.w3.org/1999/xlink" xmlns="http://www.w3.org/2000/svg" id="Group_2" data-name="Group 2" width="172.881" height="50.873" viewBox="0 0 172.881 50.873">
  <g id="Group_1" data-name="Group 1">
    <path id="Path_559" data-name="Path 559" d="M132.659,92.31a25.179,25.179,0,1,1-25.178-25.178A25.177,25.177,0,0,1,132.659,92.31Z" transform="translate(-82.045 -66.875)" fill="#182966"/>
    <path id="Path_560" data-name="Path 560" d="M81.109,90.556V90.6a24.641,24.641,0,1,0,0-.044Zm24.67-25.419c14.206.182,25.13,11.094,25.4,25.473-.182,14.209-11.094,25.129-25.473,25.4a25.389,25.389,0,0,1-25.4-25.383v-.09C80.49,76.328,91.4,65.411,105.779,65.137Z" transform="translate(-80.311 -65.137)" fill="#ffb50c"/>
    <path id="Path_561" data-name="Path 561" d="M312.249,153.825a16.015,16.015,0,0,1,1.332,1.682h0a8.217,8.217,0,0,1,.868,2.164h0a6.235,6.235,0,0,1-2.1.5h0a5.9,5.9,0,0,1-5.67-3.517h0c-.03-.071-.066-.141-.1-.211h0a8.007,8.007,0,0,1-1.45,1.052h0a7.623,7.623,0,0,0,7.307,4.371h0a7.658,7.658,0,0,0,2.231-.456h0a8.21,8.21,0,0,1-2.257,5.85h0a5.313,5.313,0,0,0,1.066,1.439h0a9.946,9.946,0,0,0,2.97-7.627h0a10.421,10.421,0,0,0-1.856-5.306h0a16.982,16.982,0,0,0-2.087-2.266h0a16.662,16.662,0,0,0-3.724-2.526h0c.178.157.354.307.54.456h0A10.711,10.711,0,0,1,312.249,153.825Z" transform="translate(-276.163 -138.171)" fill="#ffb50c"/>
    <path id="Path_562" data-name="Path 562" d="M242.8,137.968a14.429,14.429,0,0,1,2.143.254h0a8.106,8.106,0,0,1,2.126.909h0a6.024,6.024,0,0,1-1.129,1.838h0a5.871,5.871,0,0,1-6.5,1.525h0c-.075-.029-.148-.054-.217-.084h0a8.623,8.623,0,0,1-.28,1.771h0A7.641,7.641,0,0,0,247.2,142.1h0a7.651,7.651,0,0,0,1.254-1.9h0A8.21,8.21,0,0,1,251,145.937h0a5.318,5.318,0,0,0,1.769.266h0a9.952,9.952,0,0,0-3.294-7.495h0a10.038,10.038,0,0,0-5.048-2.422h0a.093.093,0,0,1-.011-.019h0a16.547,16.547,0,0,0-7.49.72h0c.234-.018.454-.043.694-.061h0A10.549,10.549,0,0,1,242.8,137.968Z" transform="translate(-216.745 -126.975)" fill="#ffb50c"/>
    <path id="Path_563" data-name="Path 563" d="M335.155,221.681c.016.237.043.456.054.7h0a10.575,10.575,0,0,1-1.037,5.178h0a17.373,17.373,0,0,1-.252,2.145h0a7.322,7.322,0,0,1-.913,2.123h0a6.055,6.055,0,0,1-1.837-1.126h0a5.879,5.879,0,0,1-1.523-6.5h0c.027-.076.058-.144.087-.218h0a7.954,7.954,0,0,1-1.774-.28h0a7.635,7.635,0,0,0,2.075,8.255h0a7.764,7.764,0,0,0,1.9,1.257h0a8.189,8.189,0,0,1-5.733,2.54h0a5.494,5.494,0,0,0-.267,1.769h0a9.927,9.927,0,0,0,7.493-3.291h0a10.094,10.094,0,0,0,2.493-5.566h0s.006-.009.01-.013h0A16.656,16.656,0,0,0,335.155,221.681Z" transform="translate(-294.289 -201.511)" fill="#ffb50c"/>
    <path id="Path_564" data-name="Path 564" d="M266.629,297.027a14.913,14.913,0,0,1-1.679,1.332h0a7.778,7.778,0,0,1-2.158.865h0a5.869,5.869,0,0,1-.506-2.1h0a5.9,5.9,0,0,1,3.517-5.671h0c.069-.035.138-.066.212-.1h0a7.929,7.929,0,0,1-1.053-1.449h0a7.646,7.646,0,0,0-4.368,7.307h0a7.555,7.555,0,0,0,.455,2.233h0a8.229,8.229,0,0,1-5.851-2.258h0a5.417,5.417,0,0,0-1.439,1.066h0a9.97,9.97,0,0,0,7.626,2.968h0a9.993,9.993,0,0,0,5.288-1.861h0a.03.03,0,0,0,.022.008h0a16.319,16.319,0,0,0,2.264-2.088h0a16.587,16.587,0,0,0,2.524-3.725h0c-.154.181-.3.361-.454.541h0A10.476,10.476,0,0,1,266.629,297.027Z" transform="translate(-231.41 -260.949)" fill="#ffb50c"/>
    <path id="Path_565" data-name="Path 565" d="M153.2,190.379a14.556,14.556,0,0,1,.25-2.142h0a8.341,8.341,0,0,1,.912-2.131h0a6.279,6.279,0,0,1,1.836,1.132h0a5.9,5.9,0,0,1,1.523,6.5h0c-.032.073-.053.147-.08.22h0a8.242,8.242,0,0,1,1.77.278h0a7.652,7.652,0,0,0-2.075-8.257h0a8.213,8.213,0,0,0-1.907-1.255h0a8.2,8.2,0,0,1,5.735-2.542h0a5.5,5.5,0,0,0,.266-1.768h0a9.94,9.94,0,0,0-7.49,3.29h0a10.072,10.072,0,0,0-2.441,5.063h0a16.521,16.521,0,0,0,.718,7.492h0c-.018-.235-.043-.456-.06-.694h0A10.711,10.711,0,0,1,153.2,190.379Z" transform="translate(-142.197 -165.559)" fill="#ffb50c"/>
    <path id="Path_566" data-name="Path 566" d="M205.587,318.94a14.093,14.093,0,0,1-2.145-.253h0a8.566,8.566,0,0,1-2.124-.909h0a5.846,5.846,0,0,1,1.127-1.838h0a5.88,5.88,0,0,1,6.5-1.525h0c.069.025.142.056.216.081h0a8.685,8.685,0,0,1,.282-1.768h0a7.653,7.653,0,0,0-8.258,2.076h0a7.729,7.729,0,0,0-1.256,1.9h0a8.178,8.178,0,0,1-2.541-5.733h0a5,5,0,0,0-1.771-.268h0a9.972,9.972,0,0,0,3.3,7.5h0a9.926,9.926,0,0,0,5.049,2.419h0a.051.051,0,0,0,.014.022h0a16.478,16.478,0,0,0,7.489-.721h0c-.235.019-.463.035-.694.059h0A10.63,10.63,0,0,1,205.587,318.94Z" transform="translate(-180.758 -279.063)" fill="#ffb50c"/>
    <path id="Path_567" data-name="Path 567" d="M169.071,151.485a12.885,12.885,0,0,1,1.682-1.333h0a8.635,8.635,0,0,1,2.166-.868h0a6.127,6.127,0,0,1,.5,2.1h0a5.9,5.9,0,0,1-3.517,5.673h0c-.07.033-.14.061-.211.095h0a8.542,8.542,0,0,1,1.056,1.453h0a7.673,7.673,0,0,0,4.367-7.306h0a7.622,7.622,0,0,0-.458-2.239h0a8.321,8.321,0,0,1,5.851,2.259h0a4.8,4.8,0,0,0,1.438-1.061h0a9.953,9.953,0,0,0-7.624-2.972h0a10.039,10.039,0,0,0-4.714,1.474h0a.407.407,0,0,1-.094.016h0a16.554,16.554,0,0,0-2.765,2.455h0a16.526,16.526,0,0,0-2.522,3.721h0c.147-.19.3-.36.453-.537h0A10.436,10.436,0,0,1,169.071,151.485Z" transform="translate(-153.409 -136.693)" fill="#ffb50c"/>
    <path id="Path_568" data-name="Path 568" d="M166.728,251.393a15.728,15.728,0,0,1-1.332-1.682h0a8.755,8.755,0,0,1-.869-2.159h0a5.877,5.877,0,0,1,2.1-.5h0a5.9,5.9,0,0,1,5.669,3.519h0c.034.071.064.137.094.208h0a7.917,7.917,0,0,1,1.452-1.052h0a7.625,7.625,0,0,0-7.306-4.371h0a7.548,7.548,0,0,0-2.234.458h0a8.192,8.192,0,0,1,2.256-5.852h0a5.04,5.04,0,0,0-1.061-1.44h0a9.9,9.9,0,0,0-2.968,7.63h0a9.8,9.8,0,0,0,1.857,5.281h0a.218.218,0,0,0,0,.024h0a16.034,16.034,0,0,0,2.085,2.27h0a16.3,16.3,0,0,0,3.725,2.52h0c-.191-.143-.35-.292-.538-.452h0A10.647,10.647,0,0,1,166.728,251.393Z" transform="translate(-151.932 -216.178)" fill="#ffb50c"/>
    <path id="Path_569" data-name="Path 569" d="M224.409,126.391l-.007,0,.124-.056Z" transform="translate(-205.836 -118.453)" fill="#ffb50c"/>
    <path id="Path_570" data-name="Path 570" d="M400.468,171.6l-.013,0,.531.919.012-.006c.022-.232.288-.357.483-.471l3.238-1.872c.2-.112.4-.258.617-.16l.012-.007-.532-.922-.011.008c-.023.237-.25.337-.45.451l-3.243,1.87C400.916,171.528,400.683,171.695,400.468,171.6Z" transform="translate(-359.205 -155.691)" fill="#ffb50c"/>
    <path id="Path_571" data-name="Path 571" d="M243.821,85.07l.669,3.736c.038.227.106.463-.061.632l.006.011,1.042-.181v-.012c-.21-.1-.23-.354-.269-.573L244.568,85c-.04-.221-.106-.464.061-.633v-.011l-1.051.181,0,.015C243.792,84.647,243.779,84.843,243.821,85.07Z" transform="translate(-222.541 -81.877)" fill="#ffb50c"/>
    <path id="Path_572" data-name="Path 572" d="M180.764,93.982l1.213,1.732c.268.381.213.683-.006.837l-.2.145.035.051.34-.24a.981.981,0,0,0,.244-1.47c.456-.318.917-.619,1.408-.9a18.15,18.15,0,0,1,2.25-1.1l0,.019a19.25,19.25,0,0,1,1.831-.634l.935-.239-.006-.013c-.216-.079-.255-.329-.312-.546l-.959-3.6c-.06-.219-.143-.457.009-.637l0-.01-1.029.266v.012c.222.082.256.329.313.554l.962,3.6a.065.065,0,0,1,.01.027c-.39.114-.778.237-1.165.374-.047.019-.1.036-.148.055s-.107.04-.159.059-.127.046-.19.072v0c-.1.04-.2.08-.3.123l.13-.062a.965.965,0,0,1-1.118-.392c-.364-.8.8-1.365,1.331-1.207l-.284-.338-.6.153c-1.1.411-1.415,1.045-1.169,1.576a1.4,1.4,0,0,0,.944.6q-.778.361-1.54.8c-.5.288-.984.6-1.446.926l-.01,0-.707-1c-.13-.189-.294-.38-.212-.6l-.007-.011-.869.61,0,.012C180.514,93.575,180.63,93.8,180.764,93.982Z" transform="translate(-167.39 -84.51)" fill="#ffb50c"/>
    <path id="Path_573" data-name="Path 573" d="M220.707,398.745c.079-.213.134-.453.363-.516l0-.012-1-.359,0,.011c.131.19.024.422-.055.633l-1.267,3.514c-.077.218-.141.458-.369.521l0,.014,1,.359.006-.011c-.137-.195-.026-.359.053-.572Z" transform="translate(-200.587 -354.987)" fill="#ffb50c"/>
    <path id="Path_574" data-name="Path 574" d="M382.044,363.21l-2.756-2.608c-.17-.156-.365-.306-.332-.54l-.01-.01-.728.767.006.01c.226-.045.394.144.555.3l2.754,2.62c.167.159.362.316.331.547l.006.01.737-.768-.012-.011C382.365,363.572,382.209,363.366,382.044,363.21Z" transform="translate(-339.832 -322.053)" fill="#ffb50c"/>
    <path id="Path_575" data-name="Path 575" d="M387.4,356.31l.007,0a.028.028,0,0,0-.013,0Z" transform="translate(-347.824 -318.789)" fill="#ffb50c"/>
    <path id="Path_576" data-name="Path 576" d="M123.571,267.772a1.4,1.4,0,0,1-.393.552.679.679,0,0,1-.987,0c-.324-.394.014-.887.325-1.143a.8.8,0,0,1,.468-.208.614.614,0,0,1,.5.227A.586.586,0,0,1,123.571,267.772Zm2.353,1.9.006-.012-.378-.331a18.351,18.351,0,0,1-1.316-1.291,1.307,1.307,0,0,0-.333-1.116,1.525,1.525,0,0,0-1.025-.574l-.016,0a18.431,18.431,0,0,1-3.422-9.113l.012-.023a1.077,1.077,0,0,0-.444-.863,1.06,1.06,0,0,0-.756-1.871l-.739.055c-.223.016-.48.051-.621-.126l-.019,0,.079,1.061h.013c.121-.2.373-.191.6-.208l.665-.056a.5.5,0,0,1,.07.992h0l-.664.049c-.218.017-.481.051-.623-.124H117l.076,1.061h.014c.121-.2.371-.192.6-.21l.664-.051a.5.5,0,0,1,.1.987l-.69.051c-.224.017-.481.049-.626-.124l-.011,0,.077,1.058h.012c.123-.2.372-.194.6-.209l.8-.088a.5.5,0,0,1,.529.461v.027c.072.394.163.783.263,1.177l-1.163.306c-.229.063-.476.154-.662,0l-.017,0,.277,1.032.015,0c.076-.2.355-.271.574-.33l1.169-.311a19.028,19.028,0,0,0,1.318,3.266l-1.066.546c-.211.109-.435.248-.649.142l-.011.006.488.953.012,0c.035-.22.292-.345.495-.447l1.078-.55,0,0c.029.052.06.1.092.154.279.489.578.957.893,1.409a1.465,1.465,0,0,0-.324.205,1.291,1.291,0,0,0-.141,1.946,1.361,1.361,0,0,0,1.97.273c.1-.085.185-.162.273-.237.283.293.572.578.873.854,0,.011-.015.018-.017.029l-2.442,2.784c-.149.17-.315.4-.55.376l-.011.012.8.7.012-.011c-.062-.229.149-.428.3-.6l2.4-2.762C125.544,269.855,125.693,269.648,125.923,269.674Z" transform="translate(-112.16 -230.024)" fill="#ffb50c"/>
    <path id="Path_577" data-name="Path 577" d="M249.528,395.892l-1.594-3.293c-.094-.2-.225-.423-.113-.621l0-.015-.574.276a18.18,18.18,0,0,1-4.733,1.359,1.223,1.223,0,0,0-1.258-.347l-.112.018c.217-.032.437.023.606.427a18.343,18.343,0,0,1-5.618-.289l-.064-.02.008-.019-.94-.209v.014c.153.167.076.411.028.629l-.787,3.641c-.048.223-.079.469-.3.561l0,.012,1.04.233,0-.012c-.159-.176-.078-.413-.03-.635l.787-3.641a.176.176,0,0,0,.005-.03l0-.009a18.911,18.911,0,0,0,2.73.383l-.013.01-.035,1.211c-.007.239.008.5-.187.637v.015l1.072.03V396.2c-.177-.136-.162-.425-.155-.65l.033-1.2a19.108,19.108,0,0,0,2.576-.1c.023.125.056.349.06.365l0,0c.116.844.945,1.338,2.411,1.135l.716-.1.068-.62c-.46.558-2.229.785-2.389-.644-.006-.023-.028-.158-.046-.24a18.8,18.8,0,0,0,4.522-1.283l.02.03c0,.012.012.022.015.032l1.59,3.293c.1.207.23.418.118.625l0,.011.961-.459,0-.012C249.715,396.332,249.627,396.1,249.528,395.892Z" transform="translate(-214.258 -349.853)" fill="#ffb50c"/>
    <path id="Path_578" data-name="Path 578" d="M396.212,298.194c-.185.15-.42.057-.637-.006l-3.662-1.02c-.215-.063-.461-.112-.539-.329v.009l-.238.905v0a18.224,18.224,0,0,1-1.45,3.509c-.487.02-.771.416-.98.853l-.05.1c.1-.192.254-.34.648-.275a18.793,18.793,0,0,1-1.224,1.807h0l-.587.748c.215-.06.394.109.567.248l3.009,2.341c.18.14.391.275.377.514l.011.008.659-.837-.008-.01c-.227.069-.408-.107-.583-.247l-3.012-2.342c-.007-.006-.016-.011-.025-.018a19.112,19.112,0,0,0,1.38-2.036c.105.042.34.148.357.161l0-.005c.769.373,1.641-.046,2.286-1.381l.315-.647-.477-.4c.206.691-.581,2.288-1.865,1.631l-.2-.092a19.026,19.026,0,0,0,1.429-3.523s0,0,.007.006l3.662,1.018c.219.065.468.105.543.331l.011.005.3-1.026Z" transform="translate(-347.912 -266.984)" fill="#ffb50c"/>
    <path id="Path_579" data-name="Path 579" d="M127.318,174.916l2.183,1.208c.2.11.424.2.452.438l.007.008s.053-.122.112-.242h0c.024-.048.053-.1.083-.155l.007-.013h0a18.423,18.423,0,0,1,1.791-2.7l-.627-.112a19.608,19.608,0,0,0-1.438,2.156l-2.217-1.228c-.2-.112-.431-.21-.456-.445l-.013-.006-.513.927.01.007C126.915,174.66,127.116,174.806,127.318,174.916Z" transform="translate(-120.715 -159.407)" fill="#ffb50c"/>
    <path id="Path_580" data-name="Path 580" d="M413.547,258.844a.384.384,0,0,0,.38-.391.4.4,0,1,0-.38.391Z" transform="translate(-370.248 -233.233)" fill="#ffb50c"/>
    <path id="Path_581" data-name="Path 581" d="M115.4,309.816a.374.374,0,1,0,.192.722.374.374,0,1,0-.192-.722Z" transform="translate(-110.622 -278.278)" fill="#ffb50c"/>
    <path id="Path_582" data-name="Path 582" d="M113.519,302.751a.381.381,0,0,0,.285-.46.394.394,0,0,0-.761.2A.381.381,0,0,0,113.519,302.751Z" transform="translate(-108.816 -271.497)" fill="#ffb50c"/>
    <path id="Path_583" data-name="Path 583" d="M130.56,343.674a.374.374,0,1,0,.518.154A.382.382,0,0,0,130.56,343.674Z" transform="translate(-123.896 -307.745)" fill="#ffb50c"/>
    <path id="Path_584" data-name="Path 584" d="M127.386,336.664a.394.394,0,0,0-.7.358.394.394,0,0,0,.7-.358Z" transform="translate(-120.675 -301.506)" fill="#ffb50c"/>
    <path id="Path_585" data-name="Path 585" d="M123.418,342.636a.373.373,0,1,0,.337.664.373.373,0,1,0-.337-.664Z" transform="translate(-117.672 -306.84)" fill="#ffb50c"/>
    <path id="Path_586" data-name="Path 586" d="M272.379,427.017a.395.395,0,1,0,.361.408A.384.384,0,0,0,272.379,427.017Z" transform="translate(-247.297 -380.39)" fill="#ffb50c"/>
    <path id="Path_587" data-name="Path 587" d="M264.317,426.781a.4.4,0,1,0,.36.4A.385.385,0,0,0,264.317,426.781Z" transform="translate(-240.272 -380.183)" fill="#ffb50c"/>
    <path id="Path_588" data-name="Path 588" d="M431.9,200.574a.38.38,0,0,0,.235-.486.394.394,0,0,0-.737.278A.382.382,0,0,0,431.9,200.574Z" transform="translate(-386.142 -182.494)" fill="#ffb50c"/>
    <path id="Path_589" data-name="Path 589" d="M434.5,207.415a.373.373,0,1,0,.5.209A.38.38,0,0,0,434.5,207.415Z" transform="translate(-388.633 -189.06)" fill="#ffb50c"/>
    <path id="Path_590" data-name="Path 590" d="M373.981,396.285a.384.384,0,0,0-.131.527.374.374,0,1,0,.131-.527Z" transform="translate(-335.981 -353.576)" fill="#ffb50c"/>
    <path id="Path_591" data-name="Path 591" d="M366.975,400.256a.391.391,0,1,0,.514.157A.382.382,0,0,0,366.975,400.256Z" transform="translate(-329.877 -357.035)" fill="#ffb50c"/>
    <path id="Path_592" data-name="Path 592" d="M410.888,234.656a.373.373,0,1,0-.147-.731.373.373,0,1,0,.147.731Z" transform="translate(-367.888 -212.171)" fill="#ffb50c"/>
    <path id="Path_593" data-name="Path 593" d="M412.484,242.558a.374.374,0,1,0-.458-.289A.382.382,0,0,0,412.484,242.558Z" transform="translate(-369.278 -219.053)" fill="#ffb50c"/>
    <path id="Path_594" data-name="Path 594" d="M164.445,182.048a.395.395,0,1,0-.531.094A.383.383,0,0,0,164.445,182.048Z" transform="translate(-152.981 -166.465)" fill="#ffb50c"/>
    <path id="Path_595" data-name="Path 595" d="M159.923,188.253a.374.374,0,1,0,.127.53A.387.387,0,0,0,159.923,188.253Z" transform="translate(-149.152 -172.333)" fill="#ffb50c"/>
    <path id="Path_596" data-name="Path 596" d="M301.351,395.663a.383.383,0,0,0,.428.338.394.394,0,0,0-.107-.78A.387.387,0,0,0,301.351,395.663Z" transform="translate(-272.867 -352.687)" fill="#ffb50c"/>
    <path id="Path_597" data-name="Path 597" d="M181.447,160.785a.375.375,0,1,0,.317-.445A.385.385,0,0,0,181.447,160.785Z" transform="translate(-168.412 -148.071)" fill="#ffb50c"/>
    <path id="Path_598" data-name="Path 598" d="M427.437,332.641a.375.375,0,1,0,.192.511A.39.39,0,0,0,427.437,332.641Z" transform="translate(-382.227 -298.137)" fill="#ffb50c"/>
    <path id="Path_599" data-name="Path 599" d="M317.149,111.417a.826.826,0,0,1,1.127-.142l1.087.616a.652.652,0,0,1,.365.832l-.444.785A18.531,18.531,0,0,0,316.821,112Zm4.094,3.952a1.422,1.422,0,0,1,.352-.58.678.678,0,0,1,.986-.07c.351.367.05.885-.239,1.164a.778.778,0,0,1-.453.242.626.626,0,0,1-.52-.186A.6.6,0,0,1,321.243,115.369Zm-7.8-3.757c-.16.441-.438.568-.688.477l-.237-.086-.023.062.393.139a.986.986,0,0,0,1.355-.681,18.364,18.364,0,0,1,6.308,3.754,1.433,1.433,0,0,0,.429.961,1.531,1.531,0,0,0,.993.5l.008,0c.344.393.674.8.988,1.227l.558.8h.007c0-.23.273-.381.453-.51l3.048-2.144c.186-.129.379-.293.6-.213l.008-.008-.609-.873-.013.008c0,.238-.219.358-.406.489l-3.048,2.143c-.024.016-.049.035-.074.051-.278-.379-.564-.747-.867-1.1a1.4,1.4,0,0,0,.34-.242,1.294,1.294,0,0,0-.006-1.952,1.367,1.367,0,0,0-1.984-.127,2.029,2.029,0,0,0-.277.359c-.271-.244-.554-.475-.842-.7l.556-.942a1.147,1.147,0,0,0-.636-1.447l-1.2-.677c-.554-.316-.995-.218-1.159.071l.313-.555-.781-.442,0,.01c.1.215-.049.421-.159.617l-.628,1.11a18.091,18.091,0,0,0-1.72-.7l.4-1.113c.075-.215.138-.46.367-.524l0-.008-1-.36-.006.011c.136.194.023.421-.052.636Z" transform="translate(-282.579 -103.33)" fill="#ffb50c"/>
    <path id="Path_600" data-name="Path 600" d="M181.9,374.018l-.343-.241a1,1,0,0,0-1.518.333l-.277.39-.709,1.009c-.133.184-.256.4-.494.4l-.006.013.866.61.01-.01c-.081-.223.085-.41.22-.6l1.217-1.723c.27-.382.57-.429.788-.279l.207.147Z" transform="translate(-165.898 -333.817)" fill="#ffb50c"/>
    <path id="Path_601" data-name="Path 601" d="M344.828,382.35l-1.072-1.821c-.236-.4-.157-.7.072-.834l.219-.126-.032-.057-.36.212a1,1,0,0,0-.32,1.523l.24.412.628,1.061c.113.2.261.4.161.615l.009.012.916-.541-.009-.009C345.047,382.778,344.944,382.546,344.828,382.35Z" transform="translate(-309.259 -339.005)" fill="#ffb50c"/>
    <path id="Path_602" data-name="Path 602" d="M414.5,279.138l.474.067,1.217.174c.225.033.476.042.581.252l.014,0,.152-1.052-.015,0c-.159.173-.4.111-.629.079l-2.093-.3c-.462-.069-.643-.312-.61-.577l.037-.249-.063-.01-.054.413A1,1,0,0,0,414.5,279.138Z" transform="translate(-370.565 -250.16)" fill="#ffb50c"/>
    <path id="Path_603" data-name="Path 603" d="M270.659,94.844c.008.229.048.468-.142.61v.013s.193-.024.346-.029h.109a18.431,18.431,0,0,1,5.114.583l.153-.553.2-.736.6-2.265-.806-.213a2.011,2.011,0,0,0-1.186-.067c-.411.123-.639.467-.788,1.019l-.24.891,1.412.281.368-.345-.957-.207.1-.407c.184-.687.481-.852,1.126-.708l.143.034-.524,1.965h0l-.154.592a19.151,19.151,0,0,0-4.151-.442l-.105-2.54c-.011-.224-.048-.476.142-.619v-.011l-1.063.043v.014c.2.127.182.378.192.6Z" transform="translate(-245.873 -88.268)" fill="#ffb50c"/>
    <path id="Path_604" data-name="Path 604" d="M291.574,93.578a.465.465,0,1,0-.489-.412A.453.453,0,0,0,291.574,93.578Z" transform="translate(-263.924 -89.107)" fill="#ffb50c"/>
    <path id="Path_605" data-name="Path 605" d="M410.762,199.905a1.245,1.245,0,0,0-1.289-.052l-.854.318.494,1.33.54.094-.339-.912.382-.147c.674-.248.978-.1,1.232.512l.049.138-1.74.647a6.165,6.165,0,0,1,.227.583,18.326,18.326,0,0,1,.742,7.36l-.008.017h.007v0l.586.041-.006-.181a.371.371,0,0,1,.393-.417l0,0c.853-.038,1.416-.821,1.351-2.3l-.034-.725-.613-.122c.437.513.647,2.223-.781,2.379a.5.5,0,0,0-.23.117,18.728,18.728,0,0,0-.188-3.426l1.166-.265c.236-.054.487-.132.667.023l.013,0-.234-1.044-.014,0c-.089.2-.369.26-.589.309l-1.131.257a18.088,18.088,0,0,0-.525-2.128l1.645-.606-.287-.787A2.044,2.044,0,0,0,410.762,199.905Z" transform="translate(-366.317 -182.365)" fill="#ffb50c"/>
    <path id="Path_606" data-name="Path 606" d="M355.183,376.97a1.251,1.251,0,0,0-.219-1.274l-.492-.768-1.2.764.022.55.819-.527.225.345c.385.6.3.934-.239,1.312l-.124.075-1-1.567-.614.411.263.386.994,1.562.709-.446A1.991,1.991,0,0,0,355.183,376.97Z" transform="translate(-317.31 -335.012)" fill="#ffb50c"/>
    <path id="Path_607" data-name="Path 607" d="M148.763,140.058l.808.18.436-.587-1.034-.218c-.243-.053-.329-.245-.2-.428a.738.738,0,0,1,.69-.232l1.6.361.078.019c.057-.063.112-.125.174-.187h0v0c.252-.271.508-.537.762-.8.367-.36.752-.711,1.14-1.035l-.007,0,.014-.005h-.036l-.176-.043a1.264,1.264,0,0,1-.367-.317l-1.354-1.526c-.148-.169-.334-.342-.279-.571l-.009-.01-.794.7.006.011c.235-.027.38.178.531.352l1.4,1.6a.9.9,0,0,1-.073.068c-.053.047-.1.1-.153.144-.086.084-.175.175-.264.261-.054.051-.107.1-.157.156-.134.133-.263.268-.4.412l-.17-.029-.76-.168a1.862,1.862,0,0,0-1.821.561A.8.8,0,0,0,148.763,140.058Z" transform="translate(-139.407 -125.7)" fill="#ffb50c"/>
    <path id="Path_608" data-name="Path 608" d="M104.469,203.367c-.062.419-.114.841-.151,1.264l.553,0c.037-.38.08-.754.139-1.123l.152-.874a18.422,18.422,0,0,1,.77-2.746h0l.143-.376-.013,0c-.191.127-.419.017-.625-.064l-3.451-1.332c-.211-.081-.434-.116-.49-.348l-.015,0-.38.991.009.007c.2-.133.4-.049.612.034l3.452,1.329.078.03c-.1.293-.189.587-.273.886-.03-.01-.059-.021-.085-.028L101.448,200c-.218-.065-.465-.113-.542-.34l-.046-.011-.3,1.02.044.013c.189-.146.42-.048.638.016l3.445,1.015c.035.012.073.02.106.032-.071.3-.141.6-.2.9-.03,0-.063-.01-.09-.014l-3.544-.622c-.224-.039-.474-.061-.576-.274l-.045-.01-.185,1.046.05.011c.163-.166.407-.1.633-.056l3.539.624C104.407,203.355,104.436,203.362,104.469,203.367Z" transform="translate(-97.596 -180.678)" fill="#ffb50c"/>
    <path id="Path_609" data-name="Path 609" d="M206.513,387.942l.414-.81-1.259-.648-.461.293.864.447-.187.365c-.328.636-.653.732-1.253.453l-.125-.071.849-1.652-.009,0,.009-.011c.227-.407.519-.491.754-.362l.222.121.029-.056-.363-.2a.95.95,0,0,0-1.269.208l-1.087,2.046.742.387a2,2,0,0,0,1.144.324C205.954,388.742,206.249,388.453,206.513,387.942Z" transform="translate(-187.75 -344.356)" fill="#ffb50c"/>
    <path id="Path_610" data-name="Path 610" d="M526.963,299.17c-.454,1.07-.783,1.714-1.647,1.82v.292h4.145v-.292c-.348-.084-.97-.253-.97-.9a3.441,3.441,0,0,1,.332-1.169l1.01-2.382h5.328l.948,2.382a3.637,3.637,0,0,1,.328,1.146c0,.587-.453.816-.967.923v.292H540.9v-.313c-.936-.221-1.177-.712-1.817-2.237l-5.14-12.33h-1.4Zm5.592-8.984,1.985,4.848H530.5Z" transform="translate(-467.978 -257.893)" fill="#182966"/>
    <path id="Path_611" data-name="Path 611" d="M773.684,290.424l-.762,8.589c-.021.291-.059.691-.059,1.021,0,1.006.536,1.2,1.174,1.4v.316H769.93v-.316c1.175-.25,1.277-.876,1.383-1.983l.865-9.74c.02-.314.082-.9.082-1.171,0-.687-.288-1.087-1.176-1.253V287h4.045l4.438,10.3,4.481-10.3h3.879v.291c-.6.126-1.158.293-1.158,1.316,0,.376.042.794.082,1.193l.951,9.654a4.943,4.943,0,0,0,.185,1.064,1.552,1.552,0,0,0,1.217.919v.316H783.86v-.316c.678-.145,1.2-.542,1.2-1.066a10.476,10.476,0,0,0-.064-1.067l-.841-8.88-4.77,11.328H778.6Z" transform="translate(-681.074 -258.412)" fill="#182966"/>
    <path id="Path_612" data-name="Path 612" d="M916.969,298.779c-.455,1.068-.787,1.713-1.654,1.818v.295h4.146V300.6c-.35-.082-.968-.252-.968-.9a3.413,3.413,0,0,1,.33-1.171l1.008-2.385h5.329l.947,2.385a3.593,3.593,0,0,1,.329,1.148c0,.586-.45.815-.968.92v.295H930.9V300.6c-.992-.313-1.176-.732-1.82-2.254l-5.135-12.332h-1.4Zm5.592-8.985,1.979,4.847h-4.046Z" transform="translate(-807.727 -257.552)" fill="#182966"/>
    <path id="Path_613" data-name="Path 613" d="M1041.687,291.486c-1.568-.855-2.868-1.858-2.868-3.9a4.506,4.506,0,0,1,.514-2.071,4.867,4.867,0,0,1,4.459-2.09,9.324,9.324,0,0,1,3.551.689V287.1h-.312a2.8,2.8,0,0,0-2.889-2.109,2.281,2.281,0,0,0-2.538,2.195c0,1.274.93,1.777,2.436,2.569l.7.379c1.116.606,3.053,1.648,3.053,4.177a4.4,4.4,0,0,1-1.564,3.385,6.078,6.078,0,0,1-3.863,1.171,10.04,10.04,0,0,1-1.588-.127,7.605,7.605,0,0,1-2.291-.647v-2.966h.313a2.954,2.954,0,0,0,.923,1.44,3.484,3.484,0,0,0,2.23.712,2.665,2.665,0,0,0,2.931-2.594c0-1.441-1.03-2.026-2.416-2.778Z" transform="translate(-915.028 -255.295)" fill="#182966"/>
    <path id="Path_614" data-name="Path 614" d="M1123.875,299.514c0,.918-.041,1.567-1.26,1.8v.295h5.513v-.295c-1.1-.291-1.364-.521-1.364-2.089v-4.368c.393.02.787.041.991.041.414,0,.743-.021,1.073-.041l2.456,4.533c.742,1.4,1.464,2.218,3.176,2.218h1.717v-.295c-.786-.291-1.035-.583-1.838-2.089l-2.726-5.141a3.441,3.441,0,0,0,1.259-.857,3.846,3.846,0,0,0,1.031-2.633,3.6,3.6,0,0,0-1.8-3.2,6.176,6.176,0,0,0-3.3-.562h-6.191v.313c1.239.211,1.26.8,1.26,1.944Zm2.889-11.095h1.382a2.979,2.979,0,0,1,1.943.479,2.311,2.311,0,0,1,.885,1.965,2.288,2.288,0,0,1-1.857,2.34,5.33,5.33,0,0,1-1.136.105h-1.218Z" transform="translate(-988.316 -258.264)" fill="#182966"/>
    <path id="Path_615" data-name="Path 615" d="M1221.3,298.779c-.452,1.068-.784,1.713-1.651,1.818v.295h4.148V300.6c-.352-.082-.97-.252-.97-.9a3.382,3.382,0,0,1,.331-1.171l1.01-2.385h5.324l.948,2.385a3.6,3.6,0,0,1,.33,1.148c0,.586-.454.815-.968.92v.295h5.426V300.6c-.994-.313-1.176-.732-1.818-2.254l-5.137-12.332h-1.4Zm5.592-8.985,1.98,4.847h-4.042Z" transform="translate(-1072.848 -257.552)" fill="#182966"/>
    <path id="Path_616" data-name="Path 616" d="M1341.783,288.9a2.3,2.3,0,0,0-.164-1.005,1.4,1.4,0,0,0-1.1-.586V287h9.784v2.862H1350c-.249-1.087-.62-1.276-1.8-1.276h-3.529v4.639h2.727c1.488,0,1.9-.252,2.061-1.274h.312v4.115h-.312a1.615,1.615,0,0,0-.285-.793c-.332-.44-.725-.459-1.326-.459h-3.177V299.2c0,1.544.042,1.877,1.321,2.254v.295h-5.469v-.295c1.139-.313,1.26-.668,1.26-2.131Z" transform="translate(-1178.146 -258.411)" fill="#182966"/>
    <path id="Path_617" data-name="Path 617" d="M647.522,289.753c0-1.15,0-1.819-1.321-2.09v-.293h5.51v.293c-1.114.21-1.279.749-1.279,2.09v8.923a3.176,3.176,0,0,0,.165,1.319c.289.541.8.562,1.651.562h2.973c1.2,0,1.671-.21,1.914-1.3h.309v2.865H646.2v-.316a1.537,1.537,0,0,0,.987-.542c.293-.374.334-.752.334-2.006Z" transform="translate(-573.287 -258.736)" fill="#182966"/>
    <path id="Path_618" data-name="Path 618" d="M664.915,110.886a1.472,1.472,0,1,1-1.48-1.482A1.466,1.466,0,0,1,664.915,110.886Z" transform="translate(-587.025 -103.7)" fill="#182966"/>
    <path id="Path_619" data-name="Path 619" d="M1384.638,86.345v-.293H1379.1v.293c1.275.187,1.314,1,1.314,2.024V98.31c0,1.355,0,1.814-1.314,2.193v.292h5.534V100.5c-1.212-.379-1.3-.671-1.3-2.193V88.369C1383.342,87.034,1383.51,86.553,1384.638,86.345Z" transform="translate(-1211.756 -83.357)" fill="#182966"/>
    <path id="Path_620" data-name="Path 620" d="M559.79,110.315a7.846,7.846,0,0,0-2.8.358,3.6,3.6,0,0,0-2.38,3.578,4.221,4.221,0,0,0,.319,1.639A4.142,4.142,0,0,0,556,117.345a6.358,6.358,0,0,0,4.274,1.346c.259,0,.482-.009.682-.018l.9-1.626c-.112.008-1.12,0-1.221,0-2.02,0-3.031-1.028-3.031-2.67,0-2.4,2.061-2.462,2.776-2.462h1.64l-.009,7.942-22.345.059c-5.7.1-6.03-6.5-.679-7.241,0-.112.006-.166.006-.278l-3.97,0c-3.513,1.622-4.757,9.548,4.068,9.548h25.9V112.3c0-.95.137-1.508,1.277-1.673v-.315Z" transform="translate(-474.119 -104.494)" fill="#182966"/>
    <path id="Path_621" data-name="Path 621" d="M856.695,99.3a2.583,2.583,0,0,1-2.029,1.017,2.507,2.507,0,0,1-2.063-1.249,5.893,5.893,0,0,1-.719-2.689c0-1.5.8-3.136,2.6-3.136,2.089,0,2.777,2.367,2.777,4.025A3.218,3.218,0,0,1,856.695,99.3Zm-34.123-.525v-2.8c0-1.531,1.679-2.8,3.719-2.8l5.153-.006c1.653,0,2.992,1.007,2.992,2.247l0,3.356Zm51.177-12.435v-.293h-5.577v.293c1.128.209,1.3.749,1.3,2.087l-.015,8.53a3.143,3.143,0,0,1-.166,1.315c-.3.545-.817.563-1.672.563h-7.529a5.825,5.825,0,0,0,.363-2.081c0-3.551-2.458-5.521-5.817-5.521-3.242,0-6.011,2.1-6.011,5.54a5.428,5.428,0,0,0,.365,2l-11.549,0L837.446,95c0-2.142-2.348-3.878-5.21-3.878H826.57c-2.635,0-4.01,1.249-4.01,2.612V91.121H818.2v.3c1.31.191,1.356,1.028,1.356,2.083v5.273l-12.2,0s-.01-5.392-.01-5.584c.037-1.095.275-1.517,1.314-1.712v-.3H803.02v.3c1.3.194,1.342,1.025,1.342,2.067,0,.072.01,8.909.01,8.909,0,1.917-.9,2.772-1.994,2.772h-.694v.3h1.363c2.6,0,4.309-1.572,4.31-4.73l42.925-.007a5.9,5.9,0,0,0,4.161,1.54,6.34,6.34,0,0,0,4.306-1.54l15,.007v-.313a1.649,1.649,0,0,1-1-.545c-.29-.374-.335-.752-.335-2.005v-9.5C872.41,87.283,872.41,86.616,873.748,86.345Z" transform="translate(-708.736 -83.357)" fill="#182966"/>
    <rect id="Rectangle_228" data-name="Rectangle 228" width="113.878" height="0.768" transform="translate(58.258 25.018)" fill="#ffb50c"/>
  </g>
</svg>