<svg xmlns:xlink="http://www.w3.org/1999/xlink" xmlns="http://www.w3.org/2000/svg" width="360" height="48" viewBox="0 0 360 48" fill="none">
<path d="M87.2468 12.981V17.1165H84.2928C83.5543 17.1165 82.9635 17.3627 82.4712 17.855C81.9789 18.3474 81.7327 18.9874 81.7327 19.6766V34.6927H76.514V19.6766C76.514 18.9874 76.2679 18.3474 75.7755 17.855C75.2832 17.3627 74.6432 17.1165 73.9539 17.1165H70.9999V12.981H87.2468Z" fill="#1A4668"/>
<path d="M94.3854 12.9318V18.7905C94.3854 19.2828 94.4839 19.7751 94.6808 20.2182C94.8778 20.6613 95.1239 21.0552 95.4686 21.3506C95.8132 21.6952 96.2071 21.9414 96.6502 22.1383C97.0933 22.3353 97.5364 22.4337 98.0779 22.4337C98.5702 22.4337 99.0626 22.3353 99.5057 22.1383C99.9488 21.9414 100.343 21.6952 100.638 21.3506C100.983 21.006 101.229 20.6613 101.426 20.2182C101.623 19.7751 101.721 19.332 101.721 18.7905V12.9318H106.398V34.6435H101.721V29.9171C101.721 29.4248 101.623 28.9325 101.426 28.4894C101.229 28.0463 100.983 27.6524 100.638 27.357C100.293 27.0124 99.9488 26.7662 99.5057 26.5693C99.0626 26.3724 98.6195 26.2739 98.0779 26.2739C97.5856 26.2739 97.0933 26.3724 96.6502 26.5693C96.2071 26.7662 95.8132 27.0124 95.4686 27.357C95.1239 27.7016 94.8778 28.0463 94.6808 28.4894C94.4839 28.9325 94.3854 29.3756 94.3854 29.9171V34.6435H89.7083V12.9318H94.3854Z" fill="#1A4668"/>
<path d="M109.943 12.981H123.138V17.4119H116.491C115.9 17.4119 115.408 17.6089 114.965 18.052C114.571 18.495 114.325 18.9874 114.325 19.5782C114.325 20.169 114.522 20.6613 114.965 21.1044C115.359 21.4983 115.9 21.7444 116.491 21.7444H119.691V26.1262H116.491C115.9 26.1262 115.408 26.3231 114.965 26.7662C114.571 27.16 114.325 27.7016 114.325 28.2924V28.3416C114.325 28.9324 114.522 29.4248 114.965 29.8679C115.359 30.2617 115.9 30.5079 116.491 30.5079H123.138V34.9388H109.943V12.981Z" fill="#1A4668"/>
<path d="M149.231 29.7203C149.822 29.7203 150.314 29.868 150.659 30.1141C151.004 30.3603 151.25 30.7049 151.447 31.148C151.644 31.5419 151.742 31.985 151.84 32.4773C151.89 32.9696 151.988 33.4127 152.037 33.8558C150.954 34.2005 149.822 34.4958 148.591 34.742C147.41 35.0374 146.228 35.1359 145.096 35.1359C143.52 35.1359 142.043 34.8405 140.763 34.2004C139.434 33.6097 138.351 32.7727 137.415 31.7388C136.48 30.7049 135.791 29.5233 135.249 28.1448C134.757 26.7663 134.461 25.3385 134.461 23.7631C134.461 22.2369 134.707 20.7599 135.249 19.3813C135.791 18.0028 136.48 16.8212 137.415 15.7873C138.351 14.7534 139.483 13.9165 140.763 13.3257C142.092 12.7349 143.52 12.3903 145.096 12.3903C146.228 12.3903 147.41 12.538 148.64 12.7841C149.871 13.0795 151.004 13.3749 152.087 13.6703C152.037 14.1134 151.988 14.5565 151.89 15.0488C151.84 15.5412 151.693 15.9843 151.496 16.3781C151.299 16.772 151.053 17.1166 150.708 17.3628C150.363 17.609 149.92 17.7566 149.28 17.7566C148.886 17.7566 148.493 17.7074 148.148 17.609C147.754 17.5105 147.36 17.412 146.966 17.3136C146.573 17.2151 146.179 17.1166 145.736 17.0182C145.342 16.9197 144.899 16.8705 144.456 16.8705C143.619 16.8705 142.88 17.0674 142.24 17.5105C141.649 17.9536 141.157 18.4459 140.812 19.1352C140.468 19.7752 140.172 20.5137 140.025 21.3507C139.877 22.1384 139.778 22.9261 139.778 23.7138C139.778 24.4523 139.877 25.2401 140.025 26.0278C140.172 26.8155 140.418 27.554 140.812 28.2433C141.157 28.9325 141.649 29.4741 142.24 29.868C142.831 30.2618 143.569 30.508 144.456 30.508C144.899 30.508 145.342 30.4587 145.736 30.3603C146.129 30.2618 146.573 30.1633 146.966 30.0649C147.36 29.9664 147.754 29.8679 148.148 29.7695C148.493 29.7695 148.837 29.7203 149.231 29.7203Z" fill="#1A4668"/>
<path d="M153.711 34.6927L159.668 12.981H167.398L173.355 34.6927H168.727L168.481 33.7573C168.333 33.1665 168.137 32.6741 167.792 32.231C167.447 31.7879 167.103 31.3941 166.66 31.0494C166.216 30.7048 165.724 30.4586 165.183 30.2617C164.641 30.0648 164.099 29.9663 163.509 29.9663C162.918 29.9663 162.376 30.0648 161.835 30.2617C161.293 30.4586 160.801 30.7048 160.407 31.0494C159.964 31.3941 159.619 31.7879 159.275 32.231C158.93 32.7234 158.733 33.2157 158.536 33.7573L158.29 34.6927H153.711ZM163.509 25.5354C163.902 25.5354 164.247 25.4369 164.542 25.2892C164.838 25.1415 165.084 24.8953 165.33 24.6492C165.527 24.403 165.675 24.0584 165.773 23.7137C165.872 23.3691 165.823 23.0245 165.724 22.6306L165.281 20.809C165.183 20.3167 164.986 19.972 164.641 19.7259C164.296 19.4797 163.952 19.3812 163.558 19.3812C163.164 19.3812 162.819 19.4797 162.475 19.7259C162.13 19.972 161.933 20.3167 161.785 20.809L161.342 22.6306C161.244 22.9752 161.244 23.3691 161.293 23.7137C161.392 24.0584 161.49 24.3538 161.687 24.6492C161.884 24.8953 162.13 25.1415 162.475 25.2892C162.819 25.4861 163.164 25.5354 163.509 25.5354Z" fill="#1A4668"/>
<path d="M183.3 12.981C184.235 12.981 185.171 13.1779 186.008 13.5225C186.845 13.9164 187.583 14.4087 188.223 15.0487C188.863 15.6888 189.356 16.4273 189.75 17.2642C190.143 18.1012 190.291 19.0366 190.291 20.0213C190.291 21.3013 189.996 22.4337 189.356 23.5168C188.716 24.5999 187.879 25.4369 186.796 26.0769C186.746 26.0769 186.697 26.0769 186.697 26.1262L186.648 26.1754L191.227 34.7419H186.254L182.66 27.8985C182.562 27.6524 182.365 27.4554 182.118 27.3077C181.872 27.16 181.626 27.0616 181.38 27.0123C180.888 27.0123 180.494 27.16 180.198 27.4554C179.903 27.7508 179.755 28.1447 179.755 28.637V34.6927H175.127V12.981H183.3ZM179.558 20.1197C179.608 20.7598 179.854 21.3013 180.297 21.7444C180.74 22.1875 181.331 22.4337 181.971 22.4337H183.152C183.497 22.4337 183.792 22.3845 184.088 22.2368C184.383 22.0891 184.629 21.9414 184.875 21.7444C185.072 21.5475 185.269 21.2521 185.368 20.9567C185.516 20.6613 185.565 20.3659 185.565 20.0213C185.565 19.332 185.319 18.7412 184.826 18.2489C184.334 17.7566 183.792 17.5104 183.103 17.5104H181.922C181.232 17.5104 180.641 17.7566 180.149 18.2489C179.755 18.7904 179.509 19.3812 179.558 20.1197Z" fill="#1A4668"/>
<path d="M199.203 34.6927H193.984V12.981H199.203V34.6927Z" fill="#1A4668"/>
<path d="M203.289 12.981H206.391L212.052 21.3506C212.2 21.646 212.446 21.8921 212.692 22.0398C212.939 22.1875 213.234 22.2368 213.529 22.2368C213.973 22.2368 214.366 22.0891 214.711 21.7937C215.056 21.4983 215.253 21.0552 215.253 20.5136V12.981H219.733V34.6927H216.68L210.969 26.9139C210.822 26.6185 210.575 26.4216 210.329 26.2739C210.083 26.1262 209.788 26.0769 209.542 26.0769C209.098 26.0769 208.705 26.2246 208.36 26.52C208.015 26.8154 207.818 27.2585 207.818 27.8001V34.6927H203.338V12.981H203.289Z" fill="#1A4668"/>
<path d="M243.315 21.6459L243.463 22.7783C243.611 24.403 243.561 26.0277 243.167 27.5539C242.577 29.9171 241.494 31.7387 239.869 33.068C238.244 34.3973 236.176 35.0865 233.715 35.0865C232.09 35.0865 230.564 34.7911 229.235 34.2003C227.905 33.6095 226.773 32.7726 225.837 31.7387C224.902 30.7048 224.164 29.5232 223.622 28.1447C223.13 26.7662 222.834 25.3384 222.834 23.8122C222.834 22.286 223.08 20.8582 223.573 19.4797C224.065 18.1012 224.804 16.9196 225.739 15.8857C226.674 14.8518 227.758 14.0148 229.087 13.424C230.416 12.8332 231.844 12.5378 233.37 12.5378C234.502 12.5378 235.635 12.6855 236.767 12.9317C237.9 13.1779 238.983 13.424 240.066 13.6702C240.066 14.1625 240.066 14.6549 240.066 15.1964C240.066 15.6887 240.017 16.1811 239.869 16.5749C239.721 16.9688 239.524 17.3134 239.18 17.5596C238.835 17.8058 238.343 17.9535 237.653 17.9535C237.26 17.9535 236.866 17.9042 236.423 17.855C236.029 17.7565 235.586 17.7073 235.192 17.5596C234.749 17.4611 234.355 17.3627 233.912 17.2642C233.469 17.1657 233.075 17.1657 232.632 17.1657C231.795 17.2642 231.056 17.4611 230.515 17.9042C229.924 18.2981 229.481 18.7904 229.087 19.4305C228.742 20.0212 228.447 20.7105 228.299 21.449C228.151 22.1875 228.053 22.9752 228.053 23.763C228.053 24.6491 228.151 25.5353 228.398 26.3723C228.644 27.2093 228.939 27.9477 229.382 28.5878C229.825 29.2278 230.416 29.7201 231.105 30.114C231.795 30.5079 232.632 30.7048 233.616 30.7048C235.044 30.7048 236.176 30.4094 236.964 29.7694C237.752 29.1293 238.146 28.3416 238.146 27.357C238.146 26.8154 238.047 26.3723 237.85 26.0277C237.653 25.683 237.407 25.4369 237.112 25.2399C236.816 25.043 236.472 24.9445 236.029 24.8461C235.635 24.7968 235.192 24.7476 234.699 24.7476L234.749 21.6459H239.918V21.5967V21.6459H243.315Z" fill="#1A4668"/>
<path d="M267.375 29.1973C267.966 29.1973 268.458 29.345 268.803 29.5912C269.148 29.8373 269.394 30.182 269.591 30.6251C269.788 31.0189 269.886 31.462 269.985 31.9544C270.034 32.4467 270.132 32.8898 270.181 33.3329C269.098 33.6775 267.966 33.9729 266.735 34.2191C265.554 34.5145 264.372 34.6129 263.24 34.6129C261.664 34.6129 260.187 34.3175 258.907 33.6775C257.578 33.0867 256.495 32.2498 255.559 31.2159C254.624 30.182 253.935 29.0004 253.393 27.6219C252.901 26.2433 252.605 24.8156 252.605 23.2401C252.605 21.7139 252.851 20.2369 253.393 18.8584C253.935 17.4799 254.624 16.2983 255.559 15.2644C256.495 14.2305 257.627 13.3935 258.907 12.8027C260.236 12.2119 261.664 11.8673 263.24 11.8673C264.372 11.8673 265.554 12.015 266.784 12.2612C268.015 12.5566 269.148 12.852 270.231 13.1474C270.181 13.5905 270.132 14.0336 270.034 14.5259C269.985 15.0182 269.837 15.4613 269.64 15.8552C269.443 16.249 269.197 16.5937 268.852 16.8398C268.508 17.086 268.064 17.2337 267.424 17.2337C267.031 17.2337 266.637 17.1845 266.292 17.086C265.898 16.9875 265.504 16.8891 265.11 16.7906C264.717 16.6921 264.323 16.5937 263.88 16.4952C263.486 16.3967 263.043 16.3475 262.6 16.3475C261.763 16.3475 261.024 16.5444 260.384 16.9875C259.744 17.4306 259.301 17.9722 258.956 18.6122C258.612 19.2523 258.316 19.9908 258.169 20.8277C258.021 21.6154 257.922 22.4032 257.922 23.1909C257.922 23.9294 258.021 24.7171 258.169 25.5048C258.316 26.2926 258.563 27.0311 258.956 27.7203C259.301 28.4096 259.793 28.9511 260.384 29.345C260.975 29.7389 261.713 29.985 262.6 29.985C263.043 29.985 263.486 29.9358 263.88 29.8373C264.274 29.7389 264.717 29.6404 265.11 29.5419C265.504 29.4435 265.898 29.345 266.292 29.2465C266.587 29.2465 266.981 29.1973 267.375 29.1973Z" fill="#1A4668"/>
<path d="M277.813 12.4076V18.2663C277.813 18.7586 277.911 19.251 278.108 19.6941C278.305 20.1372 278.551 20.531 278.896 20.8264C279.241 21.1711 279.634 21.4172 280.077 21.6142C280.521 21.8111 280.964 21.9095 281.505 21.9095C281.998 21.9095 282.49 21.8111 282.933 21.6142C283.376 21.4172 283.77 21.1711 284.065 20.8264C284.41 20.4818 284.656 20.1372 284.853 19.6941C285.05 19.251 285.148 18.8079 285.148 18.2663V12.4076H289.826V34.1193H285.148V29.393C285.148 28.9006 285.05 28.4083 284.853 27.9652C284.656 27.5221 284.41 27.1282 284.065 26.8328C283.721 26.4882 283.376 26.2421 282.933 26.0451C282.49 25.8482 282.047 25.7497 281.505 25.7497C281.013 25.7497 280.521 25.8482 280.077 26.0451C279.634 26.2421 279.241 26.4882 278.896 26.8328C278.551 27.1775 278.305 27.5221 278.108 27.9652C277.911 28.4083 277.813 28.8514 277.813 29.393V34.1193H273.136V12.4076H277.813Z" fill="#1A4668"/>
<path d="M303.315 11.8167C304.891 11.8167 306.368 12.1121 307.697 12.7029C309.026 13.2936 310.159 14.1306 311.094 15.1645C312.03 16.1984 312.768 17.4292 313.31 18.8077C313.851 20.1863 314.097 21.6632 314.097 23.2879C314.097 24.8634 313.851 26.3404 313.31 27.7189C312.768 29.0974 312.03 30.3282 311.094 31.3621C310.159 32.396 309.026 33.233 307.697 33.8238C306.368 34.4146 304.94 34.71 303.315 34.71C301.74 34.71 300.312 34.4146 298.983 33.8238C297.654 33.233 296.521 32.396 295.586 31.3621C294.65 30.3282 293.912 29.0974 293.37 27.7189C292.829 26.3404 292.583 24.8634 292.583 23.2879C292.583 21.7125 292.829 20.2355 293.37 18.8077C293.912 17.4292 294.65 16.1984 295.586 15.1645C296.521 14.1306 297.654 13.2936 298.983 12.7029C300.312 12.1121 301.74 11.8167 303.315 11.8167ZM303.315 29.8359C304.152 29.8359 304.94 29.6882 305.629 29.3436C306.319 28.9989 306.909 28.5066 307.352 27.9158C307.845 27.325 308.189 26.6358 308.436 25.7988C308.682 25.0111 308.829 24.1741 308.829 23.2387C308.829 22.3033 308.682 21.5155 308.436 20.6786C308.189 19.8909 307.845 19.2016 307.352 18.5616C306.86 17.9708 306.319 17.4784 305.629 17.1338C304.94 16.7892 304.201 16.6415 303.315 16.6415C302.429 16.6415 301.691 16.7892 301.001 17.1338C300.312 17.4784 299.721 17.9708 299.278 18.5616C298.786 19.1524 298.441 19.8416 298.195 20.6786C297.949 21.4663 297.801 22.3033 297.801 23.2387C297.801 24.1741 297.949 24.9619 298.195 25.7988C298.441 26.5865 298.786 27.2758 299.278 27.9158C299.771 28.5066 300.312 28.9989 301.001 29.3436C301.691 29.639 302.429 29.8359 303.315 29.8359Z" fill="#1A4668"/>
<path d="M322.418 34.1686H317.199V12.4569H322.418V34.1686Z" fill="#1A4668"/>
<path d="M340.634 29.1961C341.225 29.1961 341.717 29.3438 342.062 29.5899C342.406 29.8361 342.652 30.1807 342.849 30.6238C343.046 31.0177 343.145 31.4608 343.243 31.9531C343.293 32.4455 343.391 32.8886 343.44 33.3317C342.357 33.6763 341.225 33.9717 339.994 34.2178C338.812 34.5132 337.631 34.6117 336.498 34.6117C334.923 34.6117 333.446 34.3163 332.166 33.6763C330.837 33.0855 329.753 32.2485 328.818 31.2146C327.883 30.1808 327.193 28.9992 326.652 27.6206C326.159 26.2421 325.864 24.8144 325.864 23.2389C325.864 21.7127 326.11 20.2357 326.652 18.8572C327.193 17.4787 327.883 16.2971 328.818 15.2632C329.753 14.2293 330.886 13.3923 332.166 12.8015C333.495 12.2107 334.923 11.8661 336.498 11.8661C337.631 11.8661 338.812 12.0138 340.043 12.26C341.274 12.5554 342.406 12.8508 343.489 13.1461C343.44 13.5892 343.391 14.0323 343.293 14.5247C343.243 15.017 343.096 15.4601 342.899 15.854C342.702 16.2478 342.456 16.5925 342.111 16.8386C341.766 17.0848 341.323 17.2325 340.683 17.2325C340.289 17.2325 339.895 17.1832 339.551 17.0848C339.157 16.9863 338.763 16.8878 338.369 16.7894C337.975 16.6909 337.581 16.5924 337.138 16.494C336.745 16.3955 336.301 16.3463 335.858 16.3463C335.021 16.3463 334.283 16.5432 333.643 16.9863C333.003 17.4294 332.56 17.971 332.215 18.611C331.87 19.251 331.575 19.9895 331.427 20.8265C331.28 21.6142 331.181 22.4019 331.181 23.1897C331.181 23.9282 331.28 24.7159 331.427 25.5036C331.575 26.2913 331.821 27.0298 332.215 27.7191C332.56 28.4084 333.052 28.9499 333.643 29.3438C334.234 29.7376 334.972 29.9838 335.858 29.9838C336.301 29.9838 336.745 29.9346 337.138 29.8361C337.532 29.7376 337.975 29.6392 338.369 29.5407C338.763 29.4422 339.157 29.3438 339.551 29.2453C339.846 29.2453 340.24 29.1961 340.634 29.1961Z" fill="#1A4668"/>
<path d="M346.591 12.4569H359.785V16.8879H353.188C352.597 16.8879 352.105 17.0848 351.662 17.5279C351.268 17.971 351.022 18.4633 351.022 19.0541C351.022 19.6449 351.219 20.1372 351.662 20.5803C352.056 20.9742 352.597 21.2204 353.188 21.2204H356.388V25.6021H353.188C352.597 25.6021 352.105 25.799 351.662 26.2421C351.268 26.636 351.022 27.1776 351.022 27.7684V27.8176C351.022 28.4084 351.219 28.9007 351.662 29.3438C352.056 29.7377 352.597 29.9838 353.188 29.9838H359.835V34.4148H346.64V12.4569H346.591Z" fill="#1A4668"/>
<path d="M45.7035 23.7612C45.7035 28.1036 41.9157 27.3892 40.3837 31.1676C38.8047 35.0776 41.9063 37.3145 39.0302 40.2658C36.1542 43.217 33.9736 40.0308 30.1576 41.6474C26.4733 43.217 27.1688 47.0988 22.9299 47.0988C18.6909 47.0988 19.3865 43.217 15.7021 41.6474C11.8861 40.0214 9.70556 43.217 6.82949 40.2658C3.95342 37.3145 7.06446 35.087 5.47605 31.177C3.95342 27.3986 0.15625 28.113 0.15625 23.7706C0.15625 19.4283 3.94402 20.1427 5.47605 16.3643C7.05507 12.4543 3.95342 10.2174 6.82949 7.26613C9.70556 4.31486 11.8861 7.5011 15.7021 5.88448C19.3865 4.31486 18.6909 0.433105 22.9299 0.433105C27.1688 0.433105 26.4733 4.31486 30.1576 5.88448C33.9736 7.5105 36.1542 4.31486 39.0302 7.26613C41.9063 10.2174 38.7953 12.4449 40.3837 16.3643C41.9157 20.1239 45.7035 19.4189 45.7035 23.7612Z" fill="#1A4668"/>
</svg>